<?xml version="1.0" encoding="iso-8859-1"?>
<svg version="1.1" viewBox="0 0 512 512" xmlns="http://www.w3.org/2000/svg">
<g>
    <rect fill="currentColor" width="100" x="80" y="100" height="20"></rect>
    <rect fill="currentColor" width="100" x="80" y="160" height="20"></rect>
    <rect fill="currentColor" width="250" x="80" y="220" height="20"></rect>
    <rect fill="currentColor" width="250" x="80" y="280" height="20"></rect>
    <path fill="currentColor" d="m487.9,249.7c-16.3-16.3-42.7-16.3-59,0l-22.1,22.1v-112.5c0-3.1-1-5.2-3.1-7.3l-137.3-137.3c-2.1-2.1-4.2-3.1-7.3-3.1h-237.2c-6.2,0-10.4,4.2-10.4,10.4v468.1c0,6.2 4.2,10.4 10.4,10.4h374.5c6.2,0 10.4-4.2 10.4-11.4v-99.3l81.1-81.1c16.3-16.3 16.3-42.7 0-59zm-218.4-202.8l101.9,101.9h-101.9v-101.9zm116.5,432.8h-353.7v-447.3h216.4v126.9c0,6.2 4.2,10.4 10.4,10.4h126.9v122.9l-99.2,99.2-8.8,67.8 67.8-8.8 40.3-40.3v69.2zm87.2-186.1l-136.8,136.8-35,5.7 5.7-35 136.8-136.8c8.1-8.1 21.2-8.1 29.3,0 8.1,8.1 8.1,21.2 0,29.3z"></path>
</g>
</svg>